<?xml version="1.0" encoding="utf-8"?>
<!-- Generator: Adobe Illustrator 19.1.1, SVG Export Plug-In . SVG Version: 6.00 Build 0)  -->
<svg version="1.1" xmlns="http://www.w3.org/2000/svg" xmlns:xlink="http://www.w3.org/1999/xlink" x="0px" y="0px"
	 viewBox="-560 1371.3 659 236" style="enable-background:new -560 1371.3 659 236;" xml:space="preserve">
<style type="text/css">
	.st0{fill:url(#SVGID_1_);}
	.st1{fill:#FFFFFF;}
	.st2{fill:url(#SVGID_2_);}
	.st3{fill:#809CAA;}
	.st4{fill:url(#SVGID_3_);}
	.st5{fill:url(#SVGID_4_);}
	.st6{fill:url(#SVGID_5_);}
	.st7{fill:url(#SVGID_6_);}
	.st8{fill:url(#SVGID_7_);}
	.st9{fill:none;stroke:#FFFFFF;stroke-width:1.17;}
	#cog {
		<!-- -webkit-transform: rotate(90deg); -->
	}
	#cog path {
	 width: 120px;
	 height: 120px;
	 transform: rotate(45deg);
	 -ms-transform: rotate(45deg);
	 -moz-transform: rotate(45deg);
	 <!-- -moz-transform: rotate(45deg); -->
	 -moz-transform: rotate(0deg)!important;
	 transform-origin: 50% 50% 0;
	 -webkit-transform-origin: 50% 50% 0;
	 <!-- -moz-transform-origin: 50% 50% 0; -->
	 -moz-transform-origin: none!important;
	-ms-transform-origin: 50% 50% 0;
	-webkit-animation: cog 7s infinite;
	-moz-animation: cog 7s infinite;
	<!-- -moz-animation: none!important; -->
	-ms-animation: cog 7s infinite;
	animation: cog 7s infinite;
	-webkit-animation-timing-function: linear;
	-moz-animation-timing-function: linear;
	-ms-animation-timing-function: linear;
	animation-timing-function: linear
	}
	@-webkit-keyframes cog {
	100%{ -webkit-transform: rotate(360deg)}
	}
	@-moz-keyframes cog {
	100%{ -webkit-transform: rotate(360deg)}
	}
	@-ms-keyframes cog {
	100%{ -webkit-transform: rotate(360deg)}
	}
	@keyframes cog {
	100%{
		-webkit-transform: rotate(360deg);
		-moz-transform: rotate(360deg);
		-ms-transform: rotate(360deg);
		transform: rotate(360deg)
	}
	}
</style>
<g id="base">

		<linearGradient id="SVGID_1_" gradientUnits="userSpaceOnUse" x1="-555.8934" y1="1513.4354" x2="-217.3" y2="1513.4354" gradientTransform="matrix(1 0 0 -1 0 3002.6001)">
		<stop  offset="0" style="stop-color:#FFF200"/>
		<stop  offset="0.156" style="stop-color:#FFCD16"/>
		<stop  offset="0.3808" style="stop-color:#F99F2D"/>
		<stop  offset="0.5858" style="stop-color:#F47B33"/>
		<stop  offset="0.7638" style="stop-color:#F15F35"/>
		<stop  offset="0.9079" style="stop-color:#F04936"/>
		<stop  offset="1" style="stop-color:#EF4136"/>
	</linearGradient>
	<path class="st0" d="M-279.8,1429.3c0,0-6.7,2.6-11.5-0.9c-30.9-22.7-36.1-44.7-97.4-41c-62.5,3.8-89.7,81.1-96.9,96.3
		c-7.2,15.2-26.7,33.5-56.7,39.8c-30.1,6.3-1.4,6,2.6,5.4s31.8-2.6,55.9-21.8c24.1-19.2,45.6-63,64.2-70.8c0,0-4,12.3,2.6,17.5
		c6.6,5.2,8.6,11.2,5.7,17.5c-2.9,6.3-14.3,27.5-20.6,32.7c-6.3,5.2-12.3,11.2-13.5,11.5c-1.1,0.3-3.7,8-2.6,10.3
		c1.1,2.3,5.7,27.8-0.3,39.8s-7.5,17.5-7.5,17.5l4.9-1.4c0,0-3.7,6.3-4,9.5c0,0,4,1.1,10.9-2.9c6.9-4,9.2-14.3,10.3-18.9
		s-7.7-29.8,2.3-41c10-11.2,31.2-31,41.3-35.5c10-4.6,27.2-19.8,28.7-33.5c0,0,21.8,12.3,52.2,11.5c0,0-0.4,15.8-3,19.8
		s-4.9,5.2-10.6,4.3c-5.7-0.9-1.1,0-1.1,0s-1.7,2.6-0.3,2.9c1.4,0.3-4.9-0.6-4.9-0.6s0,5.4,5.7,5.4s16.3-1.4,20.3-14.6
		c4-13.2,6.7-20.5,9.9-21.1c3.2-0.6,3.4,0,18.9-10.3c12.9-8.6,20.8-17.9,20.8-17.9s6.2,3.2,12.1,2.3c4.1-0.6,1.3-0.1,4.6,0.2
		c5.5,0.6,11.2,3.8,14.1,2.7c2.9-1.1,5.4-8,5.4-8s-11.9-8.1-13-13.2c-1.1-5.2-6.9-10.6-11.8-12.9c0,0,6.3-8.6,8-17.2
		c0,0-13.6,8.4-16.2,13c0,0-12.9-15.5-17.5-15.2c0,0,2.1,18,5.6,20C-262.3,1410.4-270.6,1425-279.8,1429.3z"/>
	<path class="st1" d="M-418.3,1432.5c0,0,15-17.6,23.4-18.1c8.4-0.4,20.3,4.9,20.3,4.9l15.9,39.3c0,0-24.7,36.2-31.8,40.1
		c-7.1,4-23.8,16.8-23.8,16.8l-18.6,22.8l4,41l-25.6,20.3c0,0-11-3.5-11-4.9c0-1.3,9.7-50.3,9.7-50.3l-2.2-28.7l30.4-26.9l11.9-27.8
		L-418.3,1432.5z"/>
	<path d="M-413,1465.1c0,0,9.5,15-8.6,35.7s33.3-10.6,33.3-10.6l11.4-16.8L-413,1465.1z"/>

		<linearGradient id="SVGID_2_" gradientUnits="userSpaceOnUse" x1="-411.8788" y1="1434.3291" x2="-395.1197" y2="1533.1194" gradientTransform="matrix(1 0 0 -1 0 3002.6001)">
		<stop  offset="0.6923" style="stop-color:#809CAA"/>
		<stop  offset="1" style="stop-color:#000000"/>
	</linearGradient>
	<path class="st2" d="M-437.3,1513.2c1.3,0,71.4,2.6,79.8-60.9l-78.5,60.9"/>
	<path class="st3" d="M-444,1525.5c0,0,1.6,34,6.7,43.7c0,0,1.2,24.3-24,27.8l2.8-8.8l-4.7,0.4l5.9-13.2h-4.3l9.9-12.3l-5.5,0.4
		c0,0,11.8-6.6,9.5-34L-444,1525.5z"/>
	<path d="M-420.1,1499.5c0,0-26,2.1-31.3,15.1c-5.3,13,4,28.6,4,28.6L-420.1,1499.5z"/>
	<circle class="st3" cx="-443.4" cy="1516.3" r="12.8"/>
	<circle class="st1" cx="-443.2" cy="1516.5" r="6.6"/>
	<polygon class="st1" points="-414.6,1511.9 -418.1,1499.3 -411.2,1511.2 -401.1,1508.6 -407.3,1491.1 -397.8,1507.5 -388.8,1502.8
		-399.6,1485.7 -385.4,1500.8 -377.9,1495.6 -392.9,1480.3 -375.1,1493.8 -368.7,1486.5 -384.6,1473.7 -367.1,1484.5 -362.3,1475.7
		-372.7,1465.6 -360.7,1472.8 -356.1,1471.5 -369.8,1500.6 -403.5,1516.1 -414.3,1517.4 	"/>

		<linearGradient id="SVGID_3_" gradientUnits="userSpaceOnUse" x1="-469.9" y1="1606.5" x2="-387" y2="1606.5" gradientTransform="matrix(1 0 0 -1 0 3002.6001)">
		<stop  offset="0" style="stop-color:#FFFFFF"/>
		<stop  offset="1" style="stop-color:#F7941E"/>
	</linearGradient>
	<path class="st4" d="M-466.5,1398.7c-1.9,0-3.4-1.2-3.4-2.6l0,0c0-1.4,1.5-2.6,3.4-2.6l0,0h76.1c1.9,0,3.4,1.2,3.4,2.6l0,0
		c0,1.4-1.5,2.6-3.4,2.6l0,0H-466.5L-466.5,1398.7z"/>

		<linearGradient id="SVGID_4_" gradientUnits="userSpaceOnUse" x1="-465" y1="1596" x2="-402.2" y2="1596" gradientTransform="matrix(1 0 0 -1 0 3002.6001)">
		<stop  offset="0" style="stop-color:#FFFFFF"/>
		<stop  offset="1" style="stop-color:#F7941E"/>
	</linearGradient>
	<path class="st5" d="M-462.4,1409.2c-1.4,0-2.6-1.2-2.6-2.6l0,0c0-1.4,1.2-2.6,2.6-2.6l0,0h57.6c1.4,0,2.6,1.2,2.6,2.6l0,0
		c0,1.4-1.2,2.6-2.6,2.6l0,0H-462.4L-462.4,1409.2z"/>

		<linearGradient id="SVGID_5_" gradientUnits="userSpaceOnUse" x1="-529.8" y1="1564.2001" x2="-429.3" y2="1564.2001" gradientTransform="matrix(1 0 0 -1 0 3002.6001)">
		<stop  offset="0" style="stop-color:#FFFFFF"/>
		<stop  offset="1" style="stop-color:#F7941E"/>
	</linearGradient>
	<path class="st6" d="M-525.7,1441c-2.3,0-4.1-1.2-4.1-2.6l0,0c0-1.4,1.9-2.6,4.1-2.6l0,0h92.3c2.3,0,4.1,1.2,4.1,2.6l0,0
		c0,1.4-1.9,2.6-4.1,2.6l0,0H-525.7L-525.7,1441z"/>

		<linearGradient id="SVGID_6_" gradientUnits="userSpaceOnUse" x1="-504.3" y1="1537.1001" x2="-460.3" y2="1537.1001" gradientTransform="matrix(1 0 0 -1 0 3002.6001)">
		<stop  offset="0" style="stop-color:#FFFFFF"/>
		<stop  offset="1" style="stop-color:#FBB040"/>
	</linearGradient>
	<path class="st7" d="M-502.5,1468.1c-1,0-1.8-1.2-1.8-2.6l0,0c0-1.4,0.8-2.6,1.8-2.6l0,0h40.4c1,0,1.8,1.2,1.8,2.6l0,0
		c0,1.4-0.8,2.6-1.8,2.6l0,0H-502.5L-502.5,1468.1z"/>

		<linearGradient id="SVGID_7_" gradientUnits="userSpaceOnUse" x1="-506.9" y1="1438.4" x2="-448.3" y2="1438.4" gradientTransform="matrix(1 0 0 -1 0 3002.6001)">
		<stop  offset="0" style="stop-color:#FFFFFF"/>
		<stop  offset="1" style="stop-color:#809CAA"/>
	</linearGradient>
	<path class="st8" d="M-504.5,1566.8c-1.3,0-2.4-1.2-2.4-2.6l0,0c0-1.4,1.1-2.6,2.4-2.6l0,0h53.8c1.3,0,2.4,1.2,2.4,2.6l0,0
		c0,1.4-1.1,2.6-2.4,2.6l0,0H-504.5L-504.5,1566.8z"/>
	<rect x="-302.9" y="1511.6" class="st3" width="119" height="57.2"/>
	<g>
		<path d="M-416.5,1559.9h-3.5v-39.7h3.5V1559.9z"/>
		<path d="M-402.9,1548.9c0,6.2,2.7,8.4,9.9,8.4c2.6,0,6.1-0.3,8.8-0.8l0.4,3c-3,0.6-6.7,0.9-9.5,0.9c-9.6,0-13.2-4.1-13.2-11.5
			V1531c0-7.4,3.6-11.5,13.2-11.5c2.9,0,6.5,0.3,9.5,0.9l-0.4,3c-2.7-0.5-6.3-0.8-8.8-0.8c-7.2,0-9.9,2.2-9.9,8.4V1548.9z"/>
		<path d="M-360.2,1544.7h-0.8h-10.5v15.2h-3.5v-39.7h14c8,0,10.9,3.6,10.9,9.2v6.1c0,4.3-1.8,7.6-6.4,8.7l10.6,15.7h-4
			L-360.2,1544.7z M-361,1523.4h-10.6v18.1h10.6c5,0,7.3-1.7,7.3-6v-6.1C-353.6,1525.1-356,1523.4-361,1523.4z"/>
		<path d="M-315.8,1549.5h-18.5l-3.7,10.4h-3.5l13.8-39.7h5.2l13.8,39.7h-3.3L-315.8,1549.5z M-333.2,1546.4h16.3l-8.1-24.1
			L-333.2,1546.4z"/>
		<path class="st1" d="M-303.3,1556.7c5.2-6.5,6.7-8.2,11.1-13.9c4.7-6.1,6.7-8.8,6.7-12.2v-1c0-4.6-0.9-6.5-8.2-6.5
			c-2.9,0-6.5,0.7-8.6,1.4l-0.7-3c2.1-0.7,6.1-1.5,9.6-1.5c9.4,0,11.4,3.5,11.4,9.5v0.9c0,4.4-1.6,6.7-7.4,14.4
			c-3.8,5.1-5.3,6.8-9.4,11.9h17.2v3.2h-21.7V1556.7z"/>
		<path class="st1" d="M-248.1,1550.1c0,6.1-3.2,10.4-12.2,10.4c-8.9,0-12.2-4.3-12.2-10.4v-19.7c0-6.1,3.2-10.4,12.2-10.4
			c8.9,0,12.2,4.3,12.2,10.4V1550.1z M-268.9,1549.9c0,5,2,7.5,8.6,7.5s8.6-2.5,8.6-7.5v-19.2c0-5-2-7.5-8.6-7.5s-8.6,2.5-8.6,7.5
			V1549.9z"/>
		<path class="st1" d="M-242.6,1526.5l10.3-5.9h3.2v39.3h-3.5v-35.1l-8.2,4.6L-242.6,1526.5z"/>
		<path class="st1" d="M-202.5,1539.8c6.2,2.7,8.2,5.5,8.2,10.1v1.2c0,6.5-3.7,9.4-12.3,9.4c-8.6,0-12.3-2.9-12.3-9.4v-1.2
			c0-4.6,2-7.4,8.1-10.1c-5.6-2.6-7.1-5.8-7.1-9.6v-0.8c0-5.3,2.6-9.5,11.3-9.5c8.6,0,11.3,4.2,11.3,9.5v0.8
			C-195.3,1534.5-196.7,1537.3-202.5,1539.8z M-206.5,1541.5c-6.8,2.7-8.8,4.1-8.8,8.2v1.2c0,4.8,2.3,6.4,8.8,6.4s8.8-1.6,8.8-6.4
			v-1.2C-197.8,1545.7-199.8,1544.3-206.5,1541.5z M-206.5,1538.2c5.9-2.6,7.7-4,7.7-7.7v-1.5c0-3.7-1.8-5.8-7.7-5.8
			s-7.7,2.1-7.7,5.8v1.5C-214.3,1534.1-212.4,1535.7-206.5,1538.2z"/>
	</g>
	<g>
		<path d="M-170.9,1537.2c1.4-1.7,1.8-2.2,3-3.7c1.3-1.6,1.8-2.3,1.8-3.3v-0.3c0-1.2-0.2-1.7-2.2-1.7c-0.8,0-1.7,0.2-2.3,0.4
			l-0.2-0.8c0.6-0.2,1.6-0.4,2.6-0.4c2.5,0,3,0.9,3,2.5v0.2c0,1.2-0.4,1.8-2,3.9c-1,1.4-1.4,1.8-2.5,3.2h4.6v0.8h-5.8V1537.2z"/>
		<path d="M-163.7,1529.1l2.8-1.6h0.8v10.5h-0.9v-9.4l-2.2,1.2L-163.7,1529.1z"/>
		<path d="M-157.5,1533.1h3.8v0.8h-3.8V1533.1z"/>
		<path d="M-152.2,1537.2c1.4-1.7,1.8-2.2,3-3.7c1.3-1.6,1.8-2.3,1.8-3.3v-0.3c0-1.2-0.2-1.7-2.2-1.7c-0.8,0-1.7,0.2-2.3,0.4
			l-0.2-0.8c0.6-0.2,1.6-0.4,2.6-0.4c2.5,0,3,0.9,3,2.5v0.2c0,1.2-0.4,1.8-2,3.9c-1,1.4-1.4,1.8-2.5,3.2h4.6v0.8h-5.8V1537.2z"/>
		<path d="M-143.7,1527.6h5.4v0.8h-4.4v3.8c0.7,0,1,0,1.9,0c2,0,2.6,1,2.6,2.5v0.9c0,1.7-0.8,2.6-3.2,2.6c-0.8,0-1.9-0.1-2.7-0.4
			l0.2-0.8c0.8,0.2,1.7,0.3,2.5,0.3c1.7,0,2.3-0.5,2.3-1.8v-0.7c0-1.3-0.4-1.7-1.9-1.8c-0.9,0-1.8,0-2.6,0L-143.7,1527.6
			L-143.7,1527.6z"/>
		<path d="M-123.2,1528.2l-3.2,8.5h-1.5l-3.2-8.5l-0.2,9.9h-1l0.3-10.8h1.4l3.4,8.9l3.4-8.9h1.4l0.3,10.8h-1L-123.2,1528.2z"/>
		<path d="M-114,1538.1h-0.8l-0.1-0.6c-0.8,0.5-1.6,0.8-2.7,0.8c-1.4,0-2.1-0.8-2.1-2.2c0-1.7,0.8-2.2,2.3-2.2h2.3v-1.6
			c0-1.1-0.6-1.4-1.9-1.4c-0.8,0-1.6,0.1-2.3,0.3l-0.1-0.8c0.6-0.2,1.6-0.3,2.4-0.3c2.1,0,2.9,0.8,2.9,2.3v5.7H-114z M-114.9,1534.7
			h-2.3c-1.1,0-1.4,0.3-1.4,1.4c0,0.9,0.2,1.4,1.3,1.4c0.8,0,1.7-0.3,2.4-0.8V1534.7z"/>
		<path d="M-108.4,1538.1l-1.2,3.2h-0.9l1.2-3.2h-0.5l-2.7-7.9h1l2.4,7.3l2.5-7.3h1L-108.4,1538.1z"/>
		<path d="M-101.1,1537.2c1.4-1.7,1.8-2.2,3-3.7c1.3-1.6,1.8-2.3,1.8-3.3v-0.3c0-1.2-0.2-1.7-2.2-1.7c-0.8,0-1.7,0.2-2.3,0.4
			l-0.2-0.8c0.6-0.2,1.6-0.4,2.6-0.4c2.5,0,3,0.9,3,2.5v0.2c0,1.2-0.4,1.8-2,3.9c-1,1.4-1.4,1.8-2.5,3.2h4.6v0.8h-5.8V1537.2z"/>
		<path d="M-86.3,1535.4c0,1.6-0.9,2.8-3.3,2.8s-3.3-1.2-3.3-2.8v-5.3c0-1.6,0.9-2.8,3.3-2.8s3.3,1.2,3.3,2.8V1535.4z M-91.9,1535.4
			c0,1.3,0.5,2,2.3,2s2.3-0.7,2.3-2v-5.1c0-1.3-0.5-2-2.3-2s-2.3,0.7-2.3,2V1535.4z"/>
		<path d="M-84.9,1529.1l2.8-1.6h0.8v10.5h-0.9v-9.4l-2.2,1.2L-84.9,1529.1z"/>
		<path d="M-74.1,1532.7c1.7,0.7,2.2,1.5,2.2,2.7v0.3c0,1.7-1,2.5-3.3,2.5s-3.3-0.8-3.3-2.5v-0.3c0-1.2,0.5-2,2.2-2.7
			c-1.5-0.7-1.9-1.6-1.9-2.6v-0.2c0-1.4,0.7-2.5,3-2.5s3,1.1,3,2.5v0.2C-72.2,1531.3-72.6,1532-74.1,1532.7z M-75.2,1533.2
			c-1.8,0.7-2.3,1.1-2.3,2.2v0.3c0,1.3,0.6,1.7,2.3,1.7s2.3-0.4,2.3-1.7v-0.4C-72.9,1534.3-73.4,1533.9-75.2,1533.2z M-75.2,1532.3
			c1.6-0.7,2.1-1.1,2.1-2.1v-0.4c0-1-0.5-1.6-2.1-1.6s-2.1,0.6-2.1,1.6v0.4C-77.3,1531.2-76.8,1531.6-75.2,1532.3z"/>
		<path d="M-170.3,1557.6v-10.8h4.1c1.5,0,2.3,0.7,2.3,2.1v1.3c0,0.9-0.4,1.4-1.2,1.8c0.8,0.1,1.6,0.8,1.6,2v1.4
			c0,1.5-1.1,2.2-2.5,2.2H-170.3z M-164.9,1548.8c0-0.7-0.4-1.2-1.4-1.2h-3.1v4h2.8c1.2,0,1.7-0.6,1.7-1.5V1548.8z M-164.5,1554
			c0-0.9-0.5-1.5-1.8-1.5h-3v4.3h3.3c1,0,1.5-0.5,1.5-1.4V1554z"/>
		<path d="M-157.8,1550.4c-0.8,0.4-1.7,1-2.5,1.5v5.7h-0.9v-7.9h0.8v1.2c0.8-0.6,1.7-1.1,2.4-1.4L-157.8,1550.4z"/>
		<path d="M-156.2,1548.2v-1.7h0.9v1.7H-156.2z M-156.2,1557.6v-7.9h0.9v7.9H-156.2z"/>
		<path d="M-150.4,1557.8c-0.8,0-1.7-0.2-2.3-0.4l0.2-0.8c0.7,0.2,1.5,0.3,2.1,0.3c1.5,0,1.8-0.3,1.8-1.3c0-1.1,0-1.3-1.8-1.7
			c-2-0.5-2.1-1-2.1-2.4c0-1.3,0.6-2,2.6-2c0.7,0,1.6,0.1,2.2,0.3l-0.1,0.8c-0.6-0.1-1.6-0.2-2.2-0.2c-1.4,0-1.6,0.4-1.6,1.2
			c0,1.1,0.1,1.2,1.5,1.6c2.3,0.6,2.5,1,2.5,2.4C-147.8,1557-148.3,1557.8-150.4,1557.8z"/>
		<path d="M-139.6,1555c0,1.8-0.8,2.8-3.2,2.8c-0.7,0-1.9-0.1-2.7-0.3v-11l0.9-0.1v3.8c0.7-0.3,1.5-0.6,2.6-0.6
			c1.6,0,2.3,0.9,2.3,2.3v3.1H-139.6z M-144.5,1556.7c0.6,0.1,1.3,0.2,1.8,0.2c1.7,0,2.1-0.7,2.1-1.9v-3.2c0-0.9-0.4-1.4-1.5-1.4
			c-1,0-1.7,0.3-2.5,0.7v5.6H-144.5z"/>
		<path d="M-131.8,1557.6h-0.8l-0.1-0.6c-0.8,0.5-1.6,0.8-2.7,0.8c-1.4,0-2.1-0.8-2.1-2.2c0-1.7,0.8-2.2,2.3-2.2h2.3v-1.5
			c0-1.1-0.6-1.4-1.9-1.4c-0.8,0-1.6,0.1-2.3,0.3l-0.1-0.8c0.6-0.2,1.6-0.3,2.4-0.3c2.1,0,2.9,0.8,2.9,2.3v5.6H-131.8z
			 M-132.8,1554.2h-2.3c-1.1,0-1.4,0.3-1.4,1.4c0,0.9,0.2,1.4,1.3,1.4c0.8,0,1.7-0.3,2.4-0.8V1554.2z"/>
		<path d="M-124.4,1557.6v-6.4c0-0.6-0.3-0.8-0.9-0.8c-0.7,0-2.1,0.4-3,0.9v6.3h-0.9v-7.9h0.8l0.1,0.7c0.8-0.4,2.3-0.9,3.2-0.9
			c1.2,0,1.7,0.7,1.7,1.8v6.3H-124.4L-124.4,1557.6z"/>
		<path d="M-118.2,1556.9c0.8,0,1.7-0.2,2.5-0.4l0.2,0.8c-0.7,0.3-1.8,0.4-2.7,0.4c-2.2,0-2.9-1.2-2.9-2.9v-2.5c0-1.6,0.7-2.9,3-2.9
			c2.2,0,2.9,1.3,2.9,2.9v1.5h-4.9v1C-120.2,1556.3-119.7,1556.9-118.2,1556.9z M-120.2,1553.1h4v-0.7c0-1.3-0.5-2-2-2s-2,0.7-2,2
			V1553.1z"/>
		<path d="M-108.6,1554.6c0,1.7,0.7,2.3,2.7,2.3c0.7,0,1.7-0.1,2.4-0.2l0.1,0.8c-0.8,0.2-1.8,0.2-2.6,0.2c-2.6,0-3.6-1.1-3.6-3.1
			v-4.9c0-2,1-3.1,3.6-3.1c0.8,0,1.8,0.1,2.6,0.2l-0.1,0.8c-0.7-0.1-1.7-0.2-2.4-0.2c-2,0-2.7,0.6-2.7,2.3V1554.6z"/>
		<path d="M-98.7,1557.8c-2.2,0-3.1-1.3-3.1-2.9v-2.5c0-1.6,0.8-2.9,3.1-2.9c2.2,0,3.1,1.3,3.1,2.9v2.5
			C-95.6,1556.5-96.5,1557.8-98.7,1557.8z M-96.6,1552.4c0-1.3-0.7-2-2.1-2c-1.5,0-2.1,0.7-2.1,2v2.6c0,1.3,0.7,2,2.1,2
			c1.5,0,2.1-0.7,2.1-2V1552.4z"/>
		<path d="M-88.4,1557.6v-6.4c0-0.6-0.3-0.8-0.9-0.8c-0.7,0-2.1,0.4-3,0.9v6.3h-0.9v-7.9h0.8l0.1,0.7c0.8-0.4,2.3-0.9,3.2-0.9
			c1.2,0,1.7,0.7,1.7,1.8v6.3H-88.4L-88.4,1557.6z"/>
		<path d="M-81.8,1557.6h-1.4l-2.7-7.9h1l2.4,7.3l2.5-7.3h1L-81.8,1557.6z"/>
		<path d="M-74.9,1556.9c0.8,0,1.7-0.2,2.5-0.4l0.2,0.8c-0.7,0.3-1.8,0.4-2.7,0.4c-2.2,0-2.9-1.2-2.9-2.9v-2.5c0-1.6,0.7-2.9,3-2.9
			c2.2,0,2.9,1.3,2.9,2.9v1.5h-4.9v1C-76.9,1556.3-76.4,1556.9-74.9,1556.9z M-76.9,1553.1h4v-0.7c0-1.3-0.5-2-2-2s-2,0.7-2,2
			V1553.1z"/>
		<path d="M-64.8,1557.6v-6.4c0-0.6-0.3-0.8-0.9-0.8c-0.7,0-2.1,0.4-3,0.9v6.3h-0.9v-7.9h0.8l0.1,0.7c0.8-0.4,2.3-0.9,3.2-0.9
			c1.2,0,1.7,0.7,1.7,1.8v6.3H-64.8L-64.8,1557.6z"/>
		<path d="M-57.1,1557.5c-0.5,0.2-1.1,0.3-1.7,0.3c-1.3,0-1.8-0.5-1.8-1.7v-5.6h-1.5v-0.8h1.5v-1.9l0.9-0.1v2h2.4l-0.1,0.8h-2.3v5.5
			c0,0.7,0.1,1,0.9,1c0.4,0,0.9-0.1,1.4-0.2L-57.1,1557.5z"/>
		<path d="M-55.1,1548.2v-1.7h0.9v1.7H-55.1z M-55.1,1557.6v-7.9h0.9v7.9H-55.1z"/>
		<path d="M-48.8,1557.8c-2.2,0-3.1-1.3-3.1-2.9v-2.5c0-1.6,0.8-2.9,3.1-2.9c2.2,0,3.1,1.3,3.1,2.9v2.5
			C-45.7,1556.5-46.5,1557.8-48.8,1557.8z M-46.6,1552.4c0-1.3-0.7-2-2.1-2c-1.5,0-2.1,0.7-2.1,2v2.6c0,1.3,0.7,2,2.1,2
			c1.5,0,2.1-0.7,2.1-2V1552.4z"/>
		<path d="M-38.5,1557.6v-6.4c0-0.6-0.3-0.8-0.9-0.8c-0.7,0-2.1,0.4-3,0.9v6.3h-0.9v-7.9h0.8l0.1,0.7c0.8-0.4,2.3-0.9,3.2-0.9
			c1.2,0,1.7,0.7,1.7,1.8v6.3H-38.5L-38.5,1557.6z"/>
		<path d="M-24.9,1552.6v4.8c-0.9,0.3-2,0.4-3,0.4c-2.5,0-3.4-0.7-3.4-2.6v-1c0-1,0.6-1.9,1.5-2.1c-0.9-0.3-1.2-1-1.2-1.9v-1.3
			c0-1.5,1-2.3,3-2.3c0.8,0,2.1,0.2,2.9,0.4l-0.1,0.8c-0.9-0.2-2-0.3-2.8-0.3c-1.4,0-2.1,0.4-2.1,1.5v1.4c0,0.8,0.5,1.4,1.7,1.4h5.1
			v0.8L-24.9,1552.6L-24.9,1552.6z M-25.8,1556.7v-4.1h-2.4c-1.3,0-2.1,0.5-2.1,1.7v0.9c0,1.3,0.5,1.8,2.4,1.8
			C-27.2,1556.9-26.4,1556.9-25.8,1556.7z"/>
		<path d="M-17.6,1546.8h6.1v0.9h-5.1v4h4.8v0.9h-4.8v4.2h5.2v0.9h-6.1v-10.9H-17.6z"/>
		<path d="M-9.8,1557.6l2.7-4l-2.6-3.9h1l2.1,3.2l2.1-3.2h1l-2.6,3.9l2.7,4h-1l-2.2-3.2l-2.1,3.2H-9.8z"/>
		<path d="M3.2,1557.6v-6.4c0-0.6-0.3-0.8-0.9-0.8c-0.7,0-2.1,0.4-3,0.9v6.3h-0.9v-11.2l0.9-0.1v4.1c0.8-0.4,2.2-0.9,3.2-0.9
			c1.2,0,1.7,0.7,1.7,1.8v6.3H3.2L3.2,1557.6z"/>
		<path d="M6.9,1548.2v-1.7h0.9v1.7H6.9z M6.9,1557.6v-7.9h0.9v7.9H6.9z"/>
		<path d="M16.4,1555c0,1.8-0.8,2.8-3.2,2.8c-0.7,0-1.9-0.1-2.7-0.3v-11l0.9-0.1v3.8c0.7-0.3,1.5-0.6,2.6-0.6c1.6,0,2.3,0.9,2.3,2.3
			v3.1H16.4z M11.5,1556.7c0.6,0.1,1.3,0.2,1.8,0.2c1.7,0,2.1-0.7,2.1-1.9v-3.2c0-0.9-0.4-1.4-1.5-1.4c-1,0-1.7,0.3-2.5,0.7v5.6
			H11.5z"/>
		<path d="M18.8,1548.2v-1.7h0.9v1.7H18.8z M18.8,1557.6v-7.9h0.9v7.9H18.8z"/>
		<path d="M26.6,1557.5c-0.5,0.2-1.1,0.3-1.7,0.3c-1.3,0-1.8-0.5-1.8-1.7v-5.6h-1.5v-0.8h1.5v-1.9l0.9-0.1v2h2.4l-0.1,0.8H24v5.5
			c0,0.7,0.1,1,0.9,1c0.4,0,0.9-0.1,1.4-0.2L26.6,1557.5z"/>
		<path d="M28.6,1548.2v-1.7h0.9v1.7H28.6z M28.6,1557.6v-7.9h0.9v7.9H28.6z"/>
		<path d="M35,1557.8c-2.2,0-3.1-1.3-3.1-2.9v-2.5c0-1.6,0.8-2.9,3.1-2.9c2.2,0,3.1,1.3,3.1,2.9v2.5
			C38,1556.5,37.2,1557.8,35,1557.8z M37.1,1552.4c0-1.3-0.7-2-2.1-2c-1.5,0-2.1,0.7-2.1,2v2.6c0,1.3,0.7,2,2.1,2
			c1.5,0,2.1-0.7,2.1-2V1552.4z"/>
		<path d="M45.3,1557.6v-6.4c0-0.6-0.3-0.8-0.9-0.8c-0.7,0-2.1,0.4-3,0.9v6.3h-0.9v-7.9h0.8l0.1,0.7c0.8-0.4,2.3-0.9,3.2-0.9
			c1.2,0,1.7,0.7,1.7,1.8v6.3H45.3L45.3,1557.6z"/>
		<path d="M53.3,1554.6c0,1.7,0.7,2.3,2.7,2.3c0.7,0,1.7-0.1,2.4-0.2l0.1,0.8c-0.8,0.2-1.8,0.2-2.6,0.2c-2.6,0-3.6-1.1-3.6-3.1v-4.9
			c0-2,1-3.1,3.6-3.1c0.8,0,1.8,0.1,2.6,0.2l-0.1,0.8c-0.7-0.1-1.7-0.2-2.4-0.2c-2,0-2.7,0.6-2.7,2.3V1554.6z"/>
		<path d="M63.1,1556.9c0.8,0,1.7-0.2,2.5-0.4l0.2,0.8c-0.7,0.3-1.8,0.4-2.7,0.4c-2.2,0-2.9-1.2-2.9-2.9v-2.5c0-1.6,0.7-2.9,3-2.9
			c2.2,0,2.9,1.3,2.9,2.9v1.5H61v1C61,1556.3,61.5,1556.9,63.1,1556.9z M61,1553.1h4v-0.7c0-1.3-0.5-2-2-2s-2,0.7-2,2V1553.1z"/>
		<path d="M73.1,1557.6v-6.4c0-0.6-0.3-0.8-0.9-0.8c-0.7,0-2.1,0.4-3,0.9v6.3h-0.9v-7.9h0.8l0.1,0.7c0.8-0.4,2.3-0.9,3.2-0.9
			c1.2,0,1.7,0.7,1.7,1.8v6.3H73.1L73.1,1557.6z"/>
		<path d="M80.9,1557.5c-0.5,0.2-1.1,0.3-1.7,0.3c-1.3,0-1.8-0.5-1.8-1.7v-5.6h-1.5v-0.8h1.5v-1.9l0.9-0.1v2h2.4l-0.1,0.8h-2.3v5.5
			c0,0.7,0.1,1,0.9,1c0.4,0,0.9-0.1,1.4-0.2L80.9,1557.5z"/>
		<path d="M86.3,1550.4c-0.8,0.4-1.7,1-2.5,1.5v5.7h-0.9v-7.9h0.8v1.2c0.8-0.6,1.7-1.1,2.4-1.4L86.3,1550.4z"/>
		<path d="M90.5,1556.9c0.8,0,1.7-0.2,2.5-0.4l0.2,0.8c-0.7,0.3-1.8,0.4-2.7,0.4c-2.2,0-2.9-1.2-2.9-2.9v-2.5c0-1.6,0.7-2.9,3-2.9
			c2.2,0,2.9,1.3,2.9,2.9v1.5h-4.9v1C88.5,1556.3,89,1556.9,90.5,1556.9z M88.5,1553.1h4v-0.7c0-1.3-0.5-2-2-2s-2,0.7-2,2V1553.1z"
			/>
	</g>
	<polyline class="st9" points="-285.8,1375.7 -272.5,1375.7 -269.1,1379 -269.1,1418.3 -262.2,1425.3 -262.6,1436.8 -266.1,1436.8
		-301.1,1471.8 -325.8,1471.8 -357.8,1439.7 -383.5,1439.7 -383.5,1415.3 -362.6,1415.3 -360.3,1413 -360.3,1398.5 -332,1370.3
		-323.6,1370.3 -352.6,1399.2 -352.6,1413.6 -361.6,1422.6 -376.5,1422.6 -376.5,1432.9 -358.5,1432.9 -326,1465.3 -301.6,1465.3
		-269.4,1433.2 -269.4,1425.6 -276.3,1418.7 -276.3,1382.4 -285.2,1382.4 -296.1,1371.4 -318.7,1371.4 -346.5,1399.2 -346.5,1413.4
		-358.2,1425 -358.2,1427.4 -326.5,1459.1 -301,1459.1 -275.4,1433.5 -275.4,1424.9 -281.8,1418.4 -281.8,1388.6 -285.8,1388.6
		-295.1,1379.2 -320.5,1379.2 -340.1,1398.8 -340.1,1413.4 -351.3,1424.6 -351.3,1426.8 -325.8,1452.4 -300.8,1452.4 -281.9,1433.5
		-281.9,1424.7 -288.4,1418.1 -288.4,1391.9 -295.2,1385.1 -318.9,1385.1 -333,1399.2 -333,1413.4 -344.6,1424.9 -344.6,1427
		-325.6,1446 -301.2,1446 -288.7,1433.5 -288.7,1425.1 -295.3,1418.4 -295.3,1392.5 -298.9,1388.9 -317.2,1388.9 -328.9,1400.6
		-328.9,1418.6 -332,1418.6 -338.2,1424.9 -338.2,1426.8 -325.7,1439.4 -301.6,1439.4 -295.3,1433.1 -295.3,1425.1 -300.9,1419.5
		-328.9,1418.6 	"/>
	<circle class="st1" cx="-275.2" cy="1430.9" r="2.8"/>
	<circle class="st1" cx="-288.5" cy="1440.3" r="2.8"/>
	<circle class="st1" cx="-306.8" cy="1459.2" r="2.8"/>
	<circle class="st1" cx="-316.2" cy="1459.2" r="2.8"/>
	<circle class="st1" cx="-325.6" cy="1459.2" r="2.8"/>
	<circle class="st1" cx="-329.7" cy="1468.2" r="2.8"/>
	<circle class="st1" cx="-348.1" cy="1449.7" r="2.8"/>
	<circle class="st1" cx="-371.2" cy="1422.3" r="2.8"/>
	<circle class="st1" cx="-361.6" cy="1422.3" r="2.8"/>
	<circle class="st1" cx="-352.9" cy="1404" r="2.8"/>
	<circle class="st1" cx="-297.9" cy="1421.9" r="2.8"/>
	<circle class="st1" cx="-306.8" cy="1385.1" r="2.8"/>
	<circle class="st1" cx="-316.4" cy="1385.1" r="2.8"/>
	<circle class="st1" cx="-288.5" cy="1404" r="2.8"/>
	<circle class="st1" cx="-275.2" cy="1413" r="2.8"/>
	<circle class="st1" cx="-275.2" cy="1395" r="2.8"/>
	<circle class="st3" cx="-390.1" cy="1442.6" r="10.1"/>
	<g>
		<path d="M-168.6,1578.7h-0.8v-10h0.8V1578.7z"/>
		<path d="M-160.4,1573.9h-4.7v4.1h5.4v0.7h-6.2v-10h6.2v0.7h-5.3v3.8h4.7V1573.9z"/>
		<path d="M-152.5,1573.9h-4.7v4.1h5.4v0.7h-6.2v-10h6.2v0.7h-5.3v3.8h4.7V1573.9z"/>
		<path d="M-144.5,1573.9h-4.7v4.1h5.4v0.7h-6.2v-10h6.2v0.7h-5.3v3.8h4.7V1573.9z"/>
		<path d="M-137.6,1578.7h-0.8v-10h0.8V1578.7z"/>
		<path d="M-134.3,1571.3l0,1.3c0.3-0.5,0.6-0.8,1-1s0.9-0.4,1.4-0.4c0.8,0,1.4,0.2,1.8,0.7c0.4,0.4,0.6,1.1,0.6,2v4.9h-0.8v-4.9
			c0-0.7-0.1-1.2-0.4-1.5c-0.3-0.3-0.7-0.5-1.3-0.5c-0.5,0-1,0.2-1.3,0.5c-0.4,0.3-0.7,0.7-0.9,1.3v5.1h-0.8v-7.4H-134.3z"/>
		<path d="M-126.1,1569.4v1.9h1.5v0.7h-1.5v4.9c0,0.4,0.1,0.7,0.2,0.9c0.1,0.2,0.4,0.3,0.7,0.3c0.1,0,0.4,0,0.7-0.1l0,0.7
			c-0.2,0.1-0.5,0.1-0.9,0.1c-0.6,0-1-0.2-1.2-0.5c-0.3-0.3-0.4-0.8-0.4-1.4v-4.9h-1.4v-0.7h1.4v-1.9H-126.1z"/>
		<path d="M-120,1578.8c-0.6,0-1.2-0.2-1.7-0.5c-0.5-0.3-0.9-0.7-1.2-1.3s-0.4-1.2-0.4-1.9v-0.3c0-0.7,0.1-1.4,0.4-1.9
			c0.3-0.6,0.7-1,1.2-1.3c0.5-0.3,1-0.5,1.6-0.5c0.9,0,1.6,0.3,2.1,0.9c0.5,0.6,0.8,1.5,0.8,2.5v0.5h-5.3v0.2c0,0.8,0.2,1.5,0.7,2.1
			c0.5,0.6,1.1,0.8,1.8,0.8c0.4,0,0.8-0.1,1.2-0.2c0.3-0.2,0.6-0.4,0.9-0.8l0.5,0.4C-118,1578.4-118.9,1578.8-120,1578.8z
			 M-120.2,1571.8c-0.6,0-1.1,0.2-1.6,0.7c-0.4,0.5-0.7,1.1-0.8,1.8h4.4v-0.1c0-0.7-0.2-1.3-0.6-1.7
			C-119.1,1572.1-119.6,1571.8-120.2,1571.8z"/>
		<path d="M-112.2,1572c-0.2,0-0.4,0-0.6,0c-0.5,0-0.9,0.1-1.3,0.4c-0.4,0.3-0.6,0.7-0.8,1.2v5.1h-0.8v-7.4h0.8l0,1.2
			c0.4-0.9,1.1-1.3,2.1-1.3c0.2,0,0.4,0,0.5,0.1L-112.2,1572z"/>
		<path d="M-110.2,1571.3l0,1.3c0.3-0.5,0.6-0.8,1-1s0.9-0.4,1.4-0.4c0.8,0,1.4,0.2,1.8,0.7c0.4,0.4,0.6,1.1,0.6,2v4.9h-0.8v-4.9
			c0-0.7-0.1-1.2-0.4-1.5c-0.3-0.3-0.7-0.5-1.3-0.5c-0.5,0-1,0.2-1.3,0.5c-0.4,0.3-0.7,0.7-0.9,1.3v5.1h-0.8v-7.4H-110.2z"/>
		<path d="M-98.6,1578.7c-0.1-0.2-0.1-0.6-0.2-1c-0.3,0.4-0.7,0.7-1.1,0.9c-0.4,0.2-0.9,0.3-1.4,0.3c-0.7,0-1.3-0.2-1.7-0.6
			c-0.4-0.4-0.7-0.9-0.7-1.5c0-0.7,0.3-1.3,0.9-1.7c0.6-0.4,1.4-0.6,2.5-0.6h1.5v-0.8c0-0.5-0.2-0.9-0.5-1.2
			c-0.3-0.3-0.8-0.5-1.4-0.5c-0.6,0-1,0.1-1.4,0.4c-0.4,0.3-0.6,0.6-0.6,1.1l-0.8,0c0-0.6,0.3-1.1,0.8-1.5s1.2-0.6,2-0.6
			c0.8,0,1.5,0.2,2,0.6c0.5,0.4,0.7,1,0.7,1.7v3.5c0,0.7,0.1,1.3,0.2,1.6v0.1H-98.6z M-101.2,1578.1c0.5,0,1-0.1,1.5-0.4
			c0.4-0.3,0.7-0.6,0.9-1.1v-1.6h-1.5c-0.8,0-1.5,0.2-1.9,0.4c-0.5,0.3-0.7,0.7-0.7,1.2c0,0.4,0.2,0.8,0.5,1
			C-102.1,1577.9-101.7,1578.1-101.2,1578.1z"/>
		<path d="M-94.5,1569.4v1.9h1.5v0.7h-1.5v4.9c0,0.4,0.1,0.7,0.2,0.9c0.1,0.2,0.4,0.3,0.7,0.3c0.1,0,0.4,0,0.7-0.1l0,0.7
			c-0.2,0.1-0.5,0.1-0.9,0.1c-0.6,0-1-0.2-1.2-0.5c-0.3-0.3-0.4-0.8-0.4-1.4v-4.9h-1.4v-0.7h1.4v-1.9H-94.5z"/>
		<path d="M-91.3,1569.1c0-0.2,0-0.3,0.2-0.4s0.2-0.2,0.4-0.2s0.3,0.1,0.4,0.2c0.1,0.1,0.2,0.2,0.2,0.4c0,0.2-0.1,0.3-0.2,0.4
			c-0.1,0.1-0.2,0.2-0.4,0.2s-0.3-0.1-0.4-0.2C-91.3,1569.4-91.3,1569.3-91.3,1569.1z M-90.4,1578.7h-0.8v-7.4h0.8V1578.7z"/>
		<path d="M-88.6,1574.9c0-0.7,0.1-1.4,0.4-1.9c0.3-0.6,0.7-1,1.2-1.3c0.5-0.3,1.1-0.5,1.7-0.5c1,0,1.8,0.3,2.4,1s0.9,1.6,0.9,2.7
			v0.2c0,0.7-0.1,1.4-0.4,1.9c-0.3,0.6-0.7,1-1.2,1.3c-0.5,0.3-1.1,0.5-1.7,0.5c-1,0-1.8-0.3-2.4-1c-0.6-0.7-0.9-1.6-0.9-2.7V1574.9
			z M-87.8,1575.1c0,0.9,0.2,1.6,0.7,2.2c0.5,0.6,1.1,0.9,1.8,0.9c0.7,0,1.3-0.3,1.8-0.9c0.5-0.6,0.7-1.3,0.7-2.2v-0.2
			c0-0.6-0.1-1.1-0.3-1.6c-0.2-0.5-0.5-0.8-0.9-1.1c-0.4-0.3-0.8-0.4-1.3-0.4c-0.7,0-1.3,0.3-1.8,0.9c-0.5,0.6-0.7,1.3-0.7,2.2
			V1575.1z"/>
		<path d="M-79.5,1571.3l0,1.3c0.3-0.5,0.6-0.8,1-1s0.9-0.4,1.4-0.4c0.8,0,1.4,0.2,1.8,0.7c0.4,0.4,0.6,1.1,0.6,2v4.9h-0.8v-4.9
			c0-0.7-0.1-1.2-0.4-1.5c-0.3-0.3-0.7-0.5-1.3-0.5c-0.5,0-1,0.2-1.3,0.5c-0.4,0.3-0.7,0.7-0.9,1.3v5.1h-0.8v-7.4H-79.5z"/>
		<path d="M-67.9,1578.7c-0.1-0.2-0.1-0.6-0.2-1c-0.3,0.4-0.7,0.7-1.1,0.9c-0.4,0.2-0.9,0.3-1.4,0.3c-0.7,0-1.3-0.2-1.7-0.6
			c-0.4-0.4-0.7-0.9-0.7-1.5c0-0.7,0.3-1.3,0.9-1.7c0.6-0.4,1.4-0.6,2.5-0.6h1.5v-0.8c0-0.5-0.2-0.9-0.5-1.2
			c-0.3-0.3-0.8-0.5-1.4-0.5c-0.6,0-1,0.1-1.4,0.4c-0.4,0.3-0.6,0.6-0.6,1.1l-0.8,0c0-0.6,0.3-1.1,0.8-1.5s1.2-0.6,2-0.6
			c0.8,0,1.5,0.2,2,0.6c0.5,0.4,0.7,1,0.7,1.7v3.5c0,0.7,0.1,1.3,0.2,1.6v0.1H-67.9z M-70.5,1578.1c0.5,0,1-0.1,1.5-0.4
			c0.4-0.3,0.7-0.6,0.9-1.1v-1.6h-1.5c-0.8,0-1.5,0.2-1.9,0.4c-0.5,0.3-0.7,0.7-0.7,1.2c0,0.4,0.2,0.8,0.5,1
			C-71.4,1577.9-71,1578.1-70.5,1578.1z"/>
		<path d="M-64.2,1578.7H-65v-10.5h0.8V1578.7z"/>
		<path d="M-51.3,1575.6c-0.1,1-0.5,1.8-1.1,2.4c-0.6,0.6-1.5,0.8-2.5,0.8c-0.7,0-1.4-0.2-2-0.6c-0.6-0.4-1-0.9-1.3-1.6
			s-0.5-1.5-0.5-2.3v-1.3c0-0.9,0.2-1.7,0.5-2.4s0.8-1.2,1.3-1.6c0.6-0.4,1.2-0.6,2-0.6c1.1,0,1.9,0.3,2.5,0.9
			c0.6,0.6,1,1.4,1.1,2.4h-0.8c-0.2-1.7-1.1-2.5-2.8-2.5c-0.9,0-1.6,0.3-2.2,1c-0.5,0.7-0.8,1.6-0.8,2.8v1.2c0,1.1,0.3,2.1,0.8,2.8
			c0.5,0.7,1.2,1,2.1,1c0.9,0,1.5-0.2,2-0.6c0.4-0.4,0.7-1.1,0.8-1.9H-51.3z"/>
		<path d="M-49.9,1574.9c0-0.7,0.1-1.4,0.4-1.9c0.3-0.6,0.7-1,1.2-1.3c0.5-0.3,1.1-0.5,1.7-0.5c1,0,1.8,0.3,2.4,1s0.9,1.6,0.9,2.7
			v0.2c0,0.7-0.1,1.4-0.4,1.9c-0.3,0.6-0.7,1-1.2,1.3c-0.5,0.3-1.1,0.5-1.7,0.5c-1,0-1.8-0.3-2.4-1c-0.6-0.7-0.9-1.6-0.9-2.7V1574.9
			z M-49.1,1575.1c0,0.9,0.2,1.6,0.7,2.2c0.5,0.6,1.1,0.9,1.8,0.9c0.7,0,1.3-0.3,1.8-0.9c0.5-0.6,0.7-1.3,0.7-2.2v-0.2
			c0-0.6-0.1-1.1-0.3-1.6c-0.2-0.5-0.5-0.8-0.9-1.1c-0.4-0.3-0.8-0.4-1.3-0.4c-0.7,0-1.3,0.3-1.8,0.9c-0.5,0.6-0.7,1.3-0.7,2.2
			V1575.1z"/>
		<path d="M-40.8,1571.3l0,1.3c0.3-0.5,0.6-0.8,1-1s0.9-0.4,1.4-0.4c0.8,0,1.4,0.2,1.8,0.7c0.4,0.4,0.6,1.1,0.6,2v4.9h-0.8v-4.9
			c0-0.7-0.1-1.2-0.4-1.5c-0.3-0.3-0.7-0.5-1.3-0.5c-0.5,0-1,0.2-1.3,0.5c-0.4,0.3-0.7,0.7-0.9,1.3v5.1h-0.8v-7.4H-40.8z"/>
		<path d="M-33.3,1578.7v-6.7h-1.2v-0.7h1.2v-0.9c0-0.8,0.2-1.3,0.6-1.7c0.4-0.4,0.9-0.6,1.6-0.6c0.3,0,0.6,0,0.9,0.1l-0.1,0.7
			c-0.2-0.1-0.5-0.1-0.7-0.1c-0.5,0-0.8,0.1-1.1,0.4c-0.3,0.3-0.4,0.7-0.4,1.2v0.9h1.8v0.7h-1.8v6.7H-33.3z"/>
		<path d="M-26.6,1578.8c-0.6,0-1.2-0.2-1.7-0.5c-0.5-0.3-0.9-0.7-1.2-1.3s-0.4-1.2-0.4-1.9v-0.3c0-0.7,0.1-1.4,0.4-1.9
			c0.3-0.6,0.7-1,1.2-1.3c0.5-0.3,1-0.5,1.6-0.5c0.9,0,1.6,0.3,2.1,0.9c0.5,0.6,0.8,1.5,0.8,2.5v0.5h-5.3v0.2c0,0.8,0.2,1.5,0.7,2.1
			c0.5,0.6,1.1,0.8,1.8,0.8c0.4,0,0.8-0.1,1.2-0.2c0.3-0.2,0.6-0.4,0.9-0.8l0.5,0.4C-24.6,1578.4-25.5,1578.8-26.6,1578.8z
			 M-26.8,1571.8c-0.6,0-1.1,0.2-1.6,0.7c-0.4,0.5-0.7,1.1-0.8,1.8h4.4v-0.1c0-0.7-0.2-1.3-0.6-1.7
			C-25.6,1572.1-26.1,1571.8-26.8,1571.8z"/>
		<path d="M-18.8,1572c-0.2,0-0.4,0-0.6,0c-0.5,0-0.9,0.1-1.3,0.4c-0.4,0.3-0.6,0.7-0.8,1.2v5.1h-0.8v-7.4h0.8l0,1.2
			c0.4-0.9,1.1-1.3,2.1-1.3c0.2,0,0.4,0,0.5,0.1L-18.8,1572z"/>
		<path d="M-14.8,1578.8c-0.6,0-1.2-0.2-1.7-0.5c-0.5-0.3-0.9-0.7-1.2-1.3s-0.4-1.2-0.4-1.9v-0.3c0-0.7,0.1-1.4,0.4-1.9
			c0.3-0.6,0.7-1,1.2-1.3c0.5-0.3,1-0.5,1.6-0.5c0.9,0,1.6,0.3,2.1,0.9c0.5,0.6,0.8,1.5,0.8,2.5v0.5h-5.3v0.2c0,0.8,0.2,1.5,0.7,2.1
			c0.5,0.6,1.1,0.8,1.8,0.8c0.4,0,0.8-0.1,1.2-0.2c0.3-0.2,0.6-0.4,0.9-0.8l0.5,0.4C-12.8,1578.4-13.6,1578.8-14.8,1578.8z
			 M-14.9,1571.8c-0.6,0-1.1,0.2-1.6,0.7c-0.4,0.5-0.7,1.1-0.8,1.8h4.4v-0.1c0-0.7-0.2-1.3-0.6-1.7
			C-13.8,1572.1-14.3,1571.8-14.9,1571.8z"/>
		<path d="M-9.6,1571.3l0,1.3c0.3-0.5,0.6-0.8,1-1s0.9-0.4,1.4-0.4c0.8,0,1.4,0.2,1.8,0.7c0.4,0.4,0.6,1.1,0.6,2v4.9h-0.8v-4.9
			c0-0.7-0.1-1.2-0.4-1.5c-0.3-0.3-0.7-0.5-1.3-0.5c-0.5,0-1,0.2-1.3,0.5c-0.4,0.3-0.7,0.7-0.9,1.3v5.1h-0.8v-7.4H-9.6z"/>
		<path d="M0,1578.1c0.6,0,1-0.2,1.4-0.5c0.4-0.3,0.6-0.7,0.6-1.2h0.8c0,0.5-0.2,0.9-0.4,1.2c-0.3,0.4-0.6,0.7-1,0.9
			c-0.4,0.2-0.9,0.3-1.4,0.3c-1,0-1.7-0.3-2.3-1c-0.6-0.7-0.9-1.6-0.9-2.7v-0.2c0-0.7,0.1-1.4,0.4-1.9s0.6-1,1.1-1.3
			c0.5-0.3,1-0.5,1.7-0.5c0.8,0,1.5,0.2,2,0.7c0.5,0.5,0.8,1.1,0.8,1.9H2.1c0-0.6-0.2-1-0.6-1.4c-0.4-0.4-0.9-0.5-1.4-0.5
			c-0.7,0-1.3,0.3-1.7,0.8c-0.4,0.5-0.6,1.3-0.6,2.2v0.2c0,0.9,0.2,1.7,0.6,2.2C-1.3,1577.9-0.7,1578.1,0,1578.1z"/>
		<path d="M7.3,1578.8c-0.6,0-1.2-0.2-1.7-0.5c-0.5-0.3-0.9-0.7-1.2-1.3s-0.4-1.2-0.4-1.9v-0.3c0-0.7,0.1-1.4,0.4-1.9
			c0.3-0.6,0.7-1,1.2-1.3c0.5-0.3,1-0.5,1.6-0.5c0.9,0,1.6,0.3,2.1,0.9c0.5,0.6,0.8,1.5,0.8,2.5v0.5H4.8v0.2c0,0.8,0.2,1.5,0.7,2.1
			c0.5,0.6,1.1,0.8,1.8,0.8c0.4,0,0.8-0.1,1.2-0.2c0.3-0.2,0.6-0.4,0.9-0.8l0.5,0.4C9.4,1578.4,8.5,1578.8,7.3,1578.8z M7.2,1571.8
			c-0.6,0-1.1,0.2-1.6,0.7c-0.4,0.5-0.7,1.1-0.8,1.8h4.4v-0.1c0-0.7-0.2-1.3-0.6-1.7C8.3,1572.1,7.8,1571.8,7.2,1571.8z"/>
		<path d="M14.7,1574.9c0-0.7,0.1-1.4,0.4-1.9c0.3-0.6,0.7-1,1.2-1.3c0.5-0.3,1.1-0.5,1.7-0.5c1,0,1.8,0.3,2.4,1s0.9,1.6,0.9,2.7
			v0.2c0,0.7-0.1,1.4-0.4,1.9c-0.3,0.6-0.7,1-1.2,1.3c-0.5,0.3-1.1,0.5-1.7,0.5c-1,0-1.8-0.3-2.4-1c-0.6-0.7-0.9-1.6-0.9-2.7V1574.9
			z M15.5,1575.1c0,0.9,0.2,1.6,0.7,2.2c0.5,0.6,1.1,0.9,1.8,0.9c0.7,0,1.3-0.3,1.8-0.9c0.5-0.6,0.7-1.3,0.7-2.2v-0.2
			c0-0.6-0.1-1.1-0.3-1.6c-0.2-0.5-0.5-0.8-0.9-1.1c-0.4-0.3-0.8-0.4-1.3-0.4c-0.7,0-1.3,0.3-1.8,0.9c-0.5,0.6-0.7,1.3-0.7,2.2
			V1575.1z"/>
		<path d="M23.7,1571.3l0,1.3c0.3-0.5,0.6-0.8,1-1s0.9-0.4,1.4-0.4c0.8,0,1.4,0.2,1.8,0.7c0.4,0.4,0.6,1.1,0.6,2v4.9h-0.8v-4.9
			c0-0.7-0.1-1.2-0.4-1.5c-0.3-0.3-0.7-0.5-1.3-0.5c-0.5,0-1,0.2-1.3,0.5c-0.4,0.3-0.7,0.7-0.9,1.3v5.1H23v-7.4H23.7z"/>
		<path d="M-165.9,1591.5h-2.9v4.1h-0.8v-10h3.2c1.1,0,1.9,0.3,2.5,0.8s0.9,1.2,0.9,2.2c0,0.6-0.2,1.2-0.6,1.7
			c-0.4,0.5-0.9,0.8-1.5,1l2.5,4.2v0.1h-0.9L-165.9,1591.5z M-168.8,1590.8h2.6c0.7,0,1.3-0.2,1.7-0.6s0.6-0.9,0.6-1.6
			c0-0.7-0.2-1.2-0.7-1.6s-1.1-0.6-1.9-0.6h-2.4V1590.8z"/>
		<path d="M-161.4,1591.9c0-0.7,0.1-1.4,0.4-1.9c0.3-0.6,0.7-1,1.2-1.3c0.5-0.3,1.1-0.5,1.7-0.5c1,0,1.8,0.3,2.4,1
			c0.6,0.7,0.9,1.6,0.9,2.7v0.2c0,0.7-0.1,1.4-0.4,1.9c-0.3,0.6-0.7,1-1.2,1.3s-1.1,0.5-1.7,0.5c-1,0-1.8-0.3-2.4-1
			c-0.6-0.7-0.9-1.6-0.9-2.7V1591.9z M-160.6,1592.1c0,0.9,0.2,1.6,0.7,2.2c0.5,0.6,1.1,0.9,1.8,0.9c0.7,0,1.3-0.3,1.8-0.9
			c0.5-0.6,0.7-1.3,0.7-2.2v-0.2c0-0.6-0.1-1.1-0.3-1.6s-0.5-0.8-0.9-1.1c-0.4-0.3-0.8-0.4-1.3-0.4c-0.7,0-1.3,0.3-1.8,0.9
			c-0.5,0.6-0.7,1.3-0.7,2.2V1592.1z"/>
		<path d="M-147.2,1592c0,1.2-0.3,2.1-0.8,2.7c-0.5,0.7-1.2,1-2.1,1c-1,0-1.8-0.4-2.3-1.1l0,1h-0.8v-10.5h0.8v4.2
			c0.5-0.8,1.3-1.2,2.3-1.2c0.9,0,1.6,0.3,2.1,1c0.5,0.7,0.8,1.6,0.8,2.8V1592z M-148,1591.9c0-1-0.2-1.7-0.6-2.3
			c-0.4-0.5-0.9-0.8-1.6-0.8c-0.5,0-1,0.1-1.3,0.4c-0.4,0.3-0.6,0.6-0.8,1.1v3.3c0.4,0.9,1.1,1.4,2.2,1.4c0.7,0,1.2-0.3,1.6-0.8
			C-148.2,1593.8-148,1593-148,1591.9z"/>
		<path d="M-145.8,1591.9c0-0.7,0.1-1.4,0.4-1.9c0.3-0.6,0.7-1,1.2-1.3c0.5-0.3,1.1-0.5,1.7-0.5c1,0,1.8,0.3,2.4,1
			c0.6,0.7,0.9,1.6,0.9,2.7v0.2c0,0.7-0.1,1.4-0.4,1.9c-0.3,0.6-0.7,1-1.2,1.3s-1.1,0.5-1.7,0.5c-1,0-1.8-0.3-2.4-1
			c-0.6-0.7-0.9-1.6-0.9-2.7V1591.9z M-145,1592.1c0,0.9,0.2,1.6,0.7,2.2c0.5,0.6,1.1,0.9,1.8,0.9c0.7,0,1.3-0.3,1.8-0.9
			c0.5-0.6,0.7-1.3,0.7-2.2v-0.2c0-0.6-0.1-1.1-0.3-1.6s-0.5-0.8-0.9-1.1c-0.4-0.3-0.8-0.4-1.3-0.4c-0.7,0-1.3,0.3-1.8,0.9
			c-0.5,0.6-0.7,1.3-0.7,2.2V1592.1z"/>
		<path d="M-136.2,1586.4v1.9h1.5v0.7h-1.5v4.9c0,0.4,0.1,0.7,0.2,0.9c0.1,0.2,0.4,0.3,0.7,0.3c0.1,0,0.4,0,0.7-0.1l0,0.7
			c-0.2,0.1-0.5,0.1-0.9,0.1c-0.6,0-1-0.2-1.2-0.5c-0.3-0.3-0.4-0.8-0.4-1.4v-4.9h-1.4v-0.7h1.4v-1.9H-136.2z"/>
		<path d="M-133.1,1586.1c0-0.2,0-0.3,0.2-0.4c0.1-0.1,0.2-0.2,0.4-0.2s0.3,0.1,0.4,0.2c0.1,0.1,0.2,0.2,0.2,0.4
			c0,0.2-0.1,0.3-0.2,0.4c-0.1,0.1-0.2,0.2-0.4,0.2s-0.3-0.1-0.4-0.2S-133.1,1586.3-133.1,1586.1z M-132.1,1595.7h-0.8v-7.4h0.8
			V1595.7z"/>
		<path d="M-127.1,1595.1c0.6,0,1-0.2,1.4-0.5c0.4-0.3,0.6-0.7,0.6-1.2h0.8c0,0.5-0.2,0.9-0.4,1.2c-0.3,0.4-0.6,0.7-1,0.9
			c-0.4,0.2-0.9,0.3-1.4,0.3c-1,0-1.7-0.3-2.3-1c-0.6-0.7-0.9-1.6-0.9-2.7v-0.2c0-0.7,0.1-1.4,0.4-1.9s0.6-1,1.1-1.3
			c0.5-0.3,1-0.5,1.7-0.5c0.8,0,1.5,0.2,2,0.7c0.5,0.5,0.8,1.1,0.8,1.9h-0.8c0-0.6-0.2-1-0.6-1.4c-0.4-0.4-0.9-0.5-1.4-0.5
			c-0.7,0-1.3,0.3-1.7,0.8c-0.4,0.5-0.6,1.3-0.6,2.2v0.2c0,0.9,0.2,1.7,0.6,2.2C-128.5,1594.9-127.9,1595.1-127.1,1595.1z"/>
		<path d="M-118.2,1593.8c0-0.4-0.2-0.7-0.5-1c-0.3-0.2-0.8-0.4-1.5-0.6c-0.7-0.1-1.2-0.3-1.5-0.5c-0.4-0.2-0.6-0.4-0.8-0.7
			c-0.2-0.3-0.3-0.6-0.3-0.9c0-0.6,0.2-1.1,0.7-1.4c0.5-0.4,1.1-0.6,1.9-0.6c0.8,0,1.5,0.2,2,0.6c0.5,0.4,0.7,0.9,0.7,1.6h-0.8
			c0-0.4-0.2-0.8-0.5-1.1c-0.4-0.3-0.8-0.4-1.4-0.4c-0.5,0-1,0.1-1.3,0.4c-0.3,0.2-0.5,0.5-0.5,0.9c0,0.4,0.1,0.7,0.4,0.9
			c0.3,0.2,0.8,0.4,1.5,0.6c0.7,0.2,1.3,0.3,1.6,0.5c0.4,0.2,0.6,0.4,0.8,0.7s0.3,0.6,0.3,1c0,0.6-0.3,1.1-0.8,1.5
			c-0.5,0.4-1.2,0.6-2,0.6c-0.9,0-1.6-0.2-2.1-0.6c-0.5-0.4-0.8-0.9-0.8-1.6h0.8c0,0.5,0.2,0.9,0.6,1.1c0.4,0.3,0.9,0.4,1.5,0.4
			c0.6,0,1-0.1,1.4-0.4S-118.2,1594.2-118.2,1593.8z"/>
		<path d="M-107.5,1595.7c-0.1-0.2-0.1-0.6-0.2-1c-0.3,0.4-0.7,0.7-1.1,0.9c-0.4,0.2-0.9,0.3-1.4,0.3c-0.7,0-1.3-0.2-1.7-0.6
			c-0.4-0.4-0.7-0.9-0.7-1.5c0-0.7,0.3-1.3,0.9-1.7c0.6-0.4,1.4-0.6,2.5-0.6h1.5v-0.8c0-0.5-0.2-0.9-0.5-1.2
			c-0.3-0.3-0.8-0.5-1.4-0.5c-0.6,0-1,0.1-1.4,0.4s-0.6,0.6-0.6,1.1l-0.8,0c0-0.6,0.3-1.1,0.8-1.5c0.5-0.4,1.2-0.6,2-0.6
			c0.8,0,1.5,0.2,2,0.6c0.5,0.4,0.7,1,0.7,1.7v3.5c0,0.7,0.1,1.3,0.2,1.6v0.1H-107.5z M-110.1,1595.1c0.5,0,1-0.1,1.5-0.4
			c0.4-0.3,0.7-0.6,0.9-1.1v-1.6h-1.5c-0.8,0-1.5,0.2-1.9,0.4c-0.5,0.3-0.7,0.7-0.7,1.2c0,0.4,0.2,0.8,0.5,1
			C-111,1594.9-110.6,1595.1-110.1,1595.1z"/>
		<path d="M-103.9,1588.3l0,1.3c0.3-0.5,0.6-0.8,1-1c0.4-0.2,0.9-0.4,1.4-0.4c0.8,0,1.4,0.2,1.8,0.7s0.6,1.1,0.6,2v4.9h-0.8v-4.9
			c0-0.7-0.1-1.2-0.4-1.5c-0.3-0.3-0.7-0.5-1.3-0.5c-0.5,0-1,0.2-1.3,0.5c-0.4,0.3-0.7,0.7-0.9,1.3v5.1h-0.8v-7.4H-103.9z"/>
		<path d="M-97.3,1591.9c0-1.1,0.3-2.1,0.8-2.7c0.5-0.7,1.2-1,2.1-1c1,0,1.8,0.4,2.3,1.2v-4.1h0.8v10.5h-0.8l0-1
			c-0.5,0.7-1.3,1.1-2.3,1.1c-0.9,0-1.5-0.3-2.1-1C-97,1594.1-97.3,1593.2-97.3,1591.9L-97.3,1591.9z M-96.5,1592
			c0,0.9,0.2,1.7,0.6,2.2c0.4,0.5,0.9,0.8,1.6,0.8c1,0,1.7-0.4,2.1-1.3v-3.5c-0.4-1-1.1-1.4-2.1-1.4c-0.7,0-1.2,0.3-1.6,0.8
			C-96.3,1590.2-96.5,1591-96.5,1592z"/>
		<path d="M-80.2,1592.9h-4.5l-1,2.8h-0.9l3.8-10h0.8l3.8,10h-0.9L-80.2,1592.9z M-84.5,1592.2h4l-2-5.4L-84.5,1592.2z"/>
		<path d="M-72.4,1594.7c-0.5,0.7-1.3,1.1-2.4,1.1c-0.8,0-1.4-0.2-1.8-0.7c-0.4-0.5-0.6-1.1-0.6-2v-4.8h0.8v4.7
			c0,1.4,0.6,2.1,1.7,2.1c1.2,0,1.9-0.5,2.2-1.5v-5.4h0.8v7.4h-0.8L-72.4,1594.7z"/>
		<path d="M-68.2,1586.4v1.9h1.5v0.7h-1.5v4.9c0,0.4,0.1,0.7,0.2,0.9c0.1,0.2,0.4,0.3,0.7,0.3c0.1,0,0.4,0,0.7-0.1l0,0.7
			c-0.2,0.1-0.5,0.1-0.9,0.1c-0.6,0-1-0.2-1.2-0.5c-0.3-0.3-0.4-0.8-0.4-1.4v-4.9h-1.4v-0.7h1.4v-1.9H-68.2z"/>
		<path d="M-65.5,1591.9c0-0.7,0.1-1.4,0.4-1.9c0.3-0.6,0.7-1,1.2-1.3c0.5-0.3,1.1-0.5,1.7-0.5c1,0,1.8,0.3,2.4,1
			c0.6,0.7,0.9,1.6,0.9,2.7v0.2c0,0.7-0.1,1.4-0.4,1.9c-0.3,0.6-0.7,1-1.2,1.3s-1.1,0.5-1.7,0.5c-1,0-1.8-0.3-2.4-1
			c-0.6-0.7-0.9-1.6-0.9-2.7V1591.9z M-64.7,1592.1c0,0.9,0.2,1.6,0.7,2.2c0.5,0.6,1.1,0.9,1.8,0.9c0.7,0,1.3-0.3,1.8-0.9
			c0.5-0.6,0.7-1.3,0.7-2.2v-0.2c0-0.6-0.1-1.1-0.3-1.6s-0.5-0.8-0.9-1.1c-0.4-0.3-0.8-0.4-1.3-0.4c-0.7,0-1.3,0.3-1.8,0.9
			c-0.5,0.6-0.7,1.3-0.7,2.2V1592.1z"/>
		<path d="M-56.5,1588.3l0,1.2c0.3-0.4,0.6-0.8,1-1s0.9-0.3,1.4-0.3c1.2,0,1.9,0.5,2.2,1.4c0.3-0.5,0.6-0.8,1.1-1.1
			c0.4-0.2,0.9-0.4,1.5-0.4c1.6,0,2.4,0.9,2.4,2.6v4.9h-0.8v-4.9c0-0.7-0.1-1.2-0.4-1.5c-0.3-0.3-0.7-0.5-1.4-0.5
			c-0.6,0-1.1,0.2-1.5,0.6c-0.4,0.4-0.6,0.8-0.7,1.4v4.9h-0.8v-4.9c0-0.6-0.2-1.1-0.4-1.4c-0.3-0.3-0.7-0.5-1.4-0.5
			c-0.5,0-1,0.1-1.3,0.4c-0.4,0.3-0.6,0.7-0.8,1.3v5.1h-0.8v-7.4H-56.5z"/>
		<path d="M-40.2,1595.7c-0.1-0.2-0.1-0.6-0.2-1c-0.3,0.4-0.7,0.7-1.1,0.9c-0.4,0.2-0.9,0.3-1.4,0.3c-0.7,0-1.3-0.2-1.7-0.6
			c-0.4-0.4-0.7-0.9-0.7-1.5c0-0.7,0.3-1.3,0.9-1.7c0.6-0.4,1.4-0.6,2.5-0.6h1.5v-0.8c0-0.5-0.2-0.9-0.5-1.2
			c-0.3-0.3-0.8-0.5-1.4-0.5c-0.6,0-1,0.1-1.4,0.4s-0.6,0.6-0.6,1.1l-0.8,0c0-0.6,0.3-1.1,0.8-1.5c0.5-0.4,1.2-0.6,2-0.6
			c0.8,0,1.5,0.2,2,0.6c0.5,0.4,0.7,1,0.7,1.7v3.5c0,0.7,0.1,1.3,0.2,1.6v0.1H-40.2z M-42.7,1595.1c0.5,0,1-0.1,1.5-0.4
			c0.4-0.3,0.7-0.6,0.9-1.1v-1.6h-1.5c-0.8,0-1.5,0.2-1.9,0.4c-0.5,0.3-0.7,0.7-0.7,1.2c0,0.4,0.2,0.8,0.5,1
			C-43.6,1594.9-43.2,1595.1-42.7,1595.1z"/>
		<path d="M-36.1,1586.4v1.9h1.5v0.7h-1.5v4.9c0,0.4,0.1,0.7,0.2,0.9c0.1,0.2,0.4,0.3,0.7,0.3c0.1,0,0.4,0,0.7-0.1l0,0.7
			c-0.2,0.1-0.5,0.1-0.9,0.1c-0.6,0-1-0.2-1.2-0.5c-0.3-0.3-0.4-0.8-0.4-1.4v-4.9h-1.4v-0.7h1.4v-1.9H-36.1z"/>
		<path d="M-32.9,1586.1c0-0.2,0-0.3,0.2-0.4c0.1-0.1,0.2-0.2,0.4-0.2s0.3,0.1,0.4,0.2c0.1,0.1,0.2,0.2,0.2,0.4
			c0,0.2-0.1,0.3-0.2,0.4c-0.1,0.1-0.2,0.2-0.4,0.2s-0.3-0.1-0.4-0.2S-32.9,1586.3-32.9,1586.1z M-31.9,1595.7h-0.8v-7.4h0.8V1595.7
			z"/>
		<path d="M-30.1,1591.9c0-0.7,0.1-1.4,0.4-1.9c0.3-0.6,0.7-1,1.2-1.3c0.5-0.3,1.1-0.5,1.7-0.5c1,0,1.8,0.3,2.4,1
			c0.6,0.7,0.9,1.6,0.9,2.7v0.2c0,0.7-0.1,1.4-0.4,1.9c-0.3,0.6-0.7,1-1.2,1.3s-1.1,0.5-1.7,0.5c-1,0-1.8-0.3-2.4-1
			c-0.6-0.7-0.9-1.6-0.9-2.7V1591.9z M-29.3,1592.1c0,0.9,0.2,1.6,0.7,2.2c0.5,0.6,1.1,0.9,1.8,0.9c0.7,0,1.3-0.3,1.8-0.9
			c0.5-0.6,0.7-1.3,0.7-2.2v-0.2c0-0.6-0.1-1.1-0.3-1.6s-0.5-0.8-0.9-1.1c-0.4-0.3-0.8-0.4-1.3-0.4c-0.7,0-1.3,0.3-1.8,0.9
			c-0.5,0.6-0.7,1.3-0.7,2.2V1592.1z"/>
		<path d="M-21.1,1588.3l0,1.3c0.3-0.5,0.6-0.8,1-1c0.4-0.2,0.9-0.4,1.4-0.4c0.8,0,1.4,0.2,1.8,0.7s0.6,1.1,0.6,2v4.9h-0.8v-4.9
			c0-0.7-0.1-1.2-0.4-1.5c-0.3-0.3-0.7-0.5-1.3-0.5c-0.5,0-1,0.2-1.3,0.5c-0.4,0.3-0.7,0.7-0.9,1.3v5.1h-0.8v-7.4H-21.1z"/>
		<path d="M-4.7,1595.7h-6.2v-0.6l3.4-3.9c0.6-0.7,1-1.2,1.2-1.6s0.3-0.8,0.3-1.2c0-0.6-0.2-1.1-0.6-1.5c-0.4-0.4-0.9-0.6-1.5-0.6
			c-0.7,0-1.2,0.2-1.6,0.6c-0.4,0.4-0.6,1-0.6,1.7h-0.8c0-0.6,0.1-1.1,0.4-1.5c0.3-0.5,0.6-0.8,1.1-1.1c0.5-0.3,1-0.4,1.6-0.4
			c0.9,0,1.6,0.2,2.1,0.7c0.5,0.5,0.8,1.1,0.8,2c0,0.5-0.1,1-0.4,1.5c-0.3,0.6-0.8,1.2-1.5,2.1l-2.8,3.1h5.2V1595.7z"/>
		<path d="M2.9,1591.5c0,1.4-0.3,2.5-0.8,3.2c-0.5,0.7-1.3,1.1-2.3,1.1c-1,0-1.7-0.4-2.3-1.1c-0.5-0.7-0.8-1.8-0.8-3.1v-1.8
			c0-1.4,0.3-2.5,0.8-3.2s1.3-1.1,2.3-1.1c1,0,1.7,0.3,2.3,1c0.5,0.7,0.8,1.7,0.8,3.1V1591.5z M2.1,1589.7c0-1.1-0.2-2-0.6-2.6
			c-0.4-0.6-0.9-0.9-1.7-0.9c-0.7,0-1.3,0.3-1.7,0.9s-0.6,1.4-0.6,2.5v2c0,1.1,0.2,2,0.6,2.6c0.4,0.6,0.9,0.9,1.7,0.9
			c0.7,0,1.3-0.3,1.7-0.9c0.4-0.6,0.6-1.4,0.6-2.6V1589.7z"/>
		<path d="M8.4,1595.7H7.6v-9l-2.7,1v-0.8l3.4-1.3h0.1V1595.7z"/>
		<path d="M18.3,1588.3c0,0.5-0.2,1-0.5,1.4c-0.3,0.4-0.7,0.7-1.2,0.9c0.6,0.2,1,0.5,1.4,1s0.5,0.9,0.5,1.5c0,0.9-0.3,1.5-0.9,2
			c-0.6,0.5-1.3,0.7-2.3,0.7c-1,0-1.7-0.2-2.3-0.7c-0.6-0.5-0.9-1.2-0.9-2c0-0.6,0.2-1.1,0.5-1.5s0.8-0.8,1.4-1
			c-0.5-0.2-0.9-0.5-1.2-0.9c-0.3-0.4-0.4-0.9-0.4-1.4c0-0.8,0.3-1.5,0.8-2c0.5-0.5,1.2-0.7,2.1-0.7s1.6,0.2,2.1,0.7
			C18,1586.8,18.3,1587.5,18.3,1588.3z M17.7,1593c0-0.6-0.2-1.1-0.7-1.5c-0.4-0.4-1-0.6-1.7-0.6s-1.3,0.2-1.7,0.6s-0.7,0.9-0.7,1.5
			s0.2,1.1,0.6,1.5c0.4,0.4,1,0.6,1.7,0.6c0.7,0,1.3-0.2,1.7-0.6S17.7,1593.7,17.7,1593z M17.4,1588.3c0-0.6-0.2-1-0.6-1.4
			c-0.4-0.4-0.9-0.6-1.5-0.6c-0.6,0-1.1,0.2-1.5,0.6c-0.4,0.4-0.6,0.8-0.6,1.4c0,0.6,0.2,1.1,0.6,1.4c0.4,0.4,0.9,0.5,1.5,0.5
			c0.6,0,1.1-0.2,1.5-0.5C17.2,1589.3,17.4,1588.9,17.4,1588.3z"/>
	</g>
</g>
<g id="cog">
	<g id="Layer_2">
		<path class="st3" d="M-409.7,1442.6c0-10.9,8.9-19.8,19.8-19.8s19.8,8.9,19.8,19.8c-0.1,10.9-8.9,19.7-19.9,19.7
			C-400.9,1462.3-409.7,1453.5-409.7,1442.6z M-386.2,1410.1c-0.8-0.1-1.1-1.2-1.4-3.8c-0.1-0.5-0.6-1.5-0.6-1.5l-0.5-0.8
			c-0.4,0-0.9,0-1.4,0s-0.9,0-1.4,0l-0.5,0.8c0,0-0.5,1-0.6,1.5c-0.3,2.6-0.6,3.7-1.4,3.8c-0.2,0-0.5,0.1-0.7,0.1s-0.5,0.1-0.7,0.1
			c-0.8,0.1-1.4-0.8-2.3-3.3c-0.2-0.5-0.9-1.3-0.9-1.3l-0.7-0.7c-0.4,0.1-0.9,0.2-1.3,0.3c-0.4,0.1-0.9,0.3-1.3,0.4l-0.2,0.9
			c0,0-0.2,1.1-0.1,1.6c0.4,2.6,0.5,3.7-0.3,4c-0.2,0.1-0.4,0.2-0.6,0.3c-0.2,0.1-0.4,0.2-0.6,0.3c-0.7,0.3-1.5-0.4-3.1-2.5
			c-0.3-0.4-1.3-1-1.3-1l-0.8-0.5c-0.4,0.2-0.8,0.4-1.2,0.7c-0.4,0.2-0.8,0.5-1.1,0.7v1c0,0,0.1,1.1,0.3,1.6
			c1.1,2.3,1.4,3.4,0.8,3.9c-0.2,0.1-0.4,0.3-0.5,0.4c-0.2,0.1-0.4,0.3-0.5,0.5c-0.6,0.5-1.6,0-3.7-1.6c-0.4-0.3-1.5-0.6-1.5-0.6
			l-0.9-0.2c-0.3,0.3-0.6,0.6-0.9,1c-0.3,0.3-0.6,0.7-0.9,1l0.3,0.9c0,0,0.4,1.1,0.7,1.4c1.7,2,2.3,2.9,1.8,3.6
			c-0.1,0.2-0.3,0.4-0.4,0.6c-0.1,0.2-0.3,0.4-0.4,0.6c-0.5,0.7-1.5,0.4-4-0.5c-0.5-0.2-1.6-0.2-1.6-0.2h-1
			c-0.2,0.4-0.4,0.8-0.6,1.2c-0.2,0.4-0.4,0.8-0.6,1.2l0.5,0.8c0,0,0.7,0.9,1.1,1.2c2.2,1.4,3,2.2,2.7,2.9c-0.1,0.2-0.2,0.4-0.2,0.7
			c-0.1,0.2-0.2,0.4-0.2,0.7c-0.3,0.8-1.4,0.8-4,0.6c-0.5,0-1.6,0.2-1.6,0.2l-0.9,0.3c-0.1,0.4-0.2,0.9-0.3,1.3s-0.2,0.9-0.3,1.3
			l0.7,0.6c0,0,0.9,0.7,1.4,0.9c2.5,0.8,3.5,1.3,3.4,2.1c0,0.2,0,0.5-0.1,0.7c0,0.2,0,0.5,0,0.7c0,0.8-1.1,1.2-3.7,1.6
			c-0.5,0.1-1.5,0.7-1.5,0.7l-0.8,0.5c0,0.4,0,0.9,0.1,1.4c0,0.4,0.1,0.9,0.1,1.4l0.9,0.4c0,0,1,0.4,1.5,0.5
			c2.6,0.1,3.7,0.3,3.8,1.1c0,0.2,0.1,0.5,0.1,0.7s0.1,0.5,0.1,0.7c0.2,0.8-0.8,1.4-3.1,2.5c-0.4,0.2-1.2,1-1.2,1l-0.6,0.7
			c0.1,0.4,0.3,0.9,0.4,1.3c0.2,0.4,0.3,0.9,0.5,1.3l1,0.2c0,0,1.1,0.1,1.6,0c2.5-0.6,3.6-0.7,4,0c0.1,0.2,0.2,0.4,0.3,0.6
			c0.1,0.2,0.2,0.4,0.3,0.6c0.4,0.7-0.3,1.6-2.3,3.3c-0.4,0.3-0.9,1.3-0.9,1.3l-0.4,0.9c0.2,0.4,0.5,0.8,0.8,1.1
			c0.3,0.4,0.5,0.7,0.8,1.1l1-0.1c0,0,1.1-0.2,1.5-0.4c2.3-1.3,3.3-1.7,3.9-1.1c0.2,0.2,0.3,0.4,0.5,0.5c0.2,0.2,0.3,0.3,0.5,0.5
			c0.6,0.6,0.1,1.6-1.3,3.8c-0.3,0.4-0.5,1.5-0.5,1.5l-0.2,1c0.3,0.3,0.7,0.6,1,0.9c0.3,0.3,0.7,0.6,1.1,0.8l0.9-0.4
			c0,0,1-0.5,1.4-0.8c1.8-1.8,2.7-2.5,3.4-2.1c0.2,0.1,0.4,0.3,0.6,0.4s0.4,0.2,0.6,0.4c0.7,0.4,0.5,1.5-0.3,4
			c-0.1,0.5-0.1,1.6-0.1,1.6l0.1,1c0.4,0.2,0.8,0.4,1.2,0.6c0.4,0.2,0.8,0.4,1.3,0.5l0.8-0.6c0,0,0.9-0.7,1.1-1.2
			c1.3-2.3,2-3.1,2.7-2.9c0.2,0.1,0.5,0.1,0.7,0.2c0.2,0.1,0.5,0.1,0.7,0.2c0.8,0.2,0.9,1.3,0.8,3.9c0,0.5,0.4,1.6,0.4,1.6l0.4,0.9
			c0.4,0.1,0.9,0.1,1.3,0.2c0.4,0.1,0.9,0.1,1.3,0.2l0.6-0.8c0,0,0.6-0.9,0.8-1.4c0.6-2.5,1.1-3.6,1.9-3.5c0.2,0,0.5,0,0.7,0
			c0.2,0,0.5,0,0.7,0c0.8,0,1.2,1,1.9,3.5c0.1,0.5,0.8,1.4,0.8,1.4l0.6,0.8c0.4,0,0.9-0.1,1.3-0.2s0.9-0.1,1.3-0.2l0.4-0.9
			c0,0,0.4-1.1,0.4-1.6c-0.1-2.6,0.1-3.7,0.8-3.9c0.2-0.1,0.5-0.1,0.7-0.2c0.2-0.1,0.5-0.1,0.7-0.2c0.8-0.2,1.5,0.7,2.7,2.9
			c0.2,0.4,1.1,1.2,1.1,1.2l0.8,0.6c0.4-0.2,0.8-0.3,1.3-0.5c0.4-0.2,0.8-0.4,1.2-0.6l0.1-1c0,0,0.1-1.1-0.1-1.6
			c-0.8-2.5-1-3.6-0.3-4c0.2-0.1,0.4-0.2,0.6-0.4c0.2-0.1,0.4-0.2,0.6-0.4c0.7-0.4,1.6,0.2,3.4,2.1c0.3,0.3,1.4,0.8,1.4,0.8l0.9,0.3
			c0.4-0.3,0.7-0.6,1.1-0.8c0.3-0.3,0.7-0.6,1-0.9l-0.2-1c0,0-0.2-1.1-0.5-1.5c-1.4-2.2-1.9-3.2-1.3-3.8c0.2-0.2,0.3-0.3,0.5-0.5
			c0.2-0.2,0.3-0.3,0.5-0.5c0.5-0.6,1.6-0.2,3.9,1.1c0.4,0.2,1.5,0.4,1.5,0.4l1,0.1c0.3-0.4,0.5-0.7,0.8-1.1s0.5-0.8,0.8-1.1
			l-0.4-0.9c0,0-0.5-1-0.9-1.3c-1.9-1.7-2.7-2.6-2.3-3.3c0.1-0.2,0.2-0.4,0.3-0.6c0.1-0.2,0.2-0.4,0.3-0.6c0.4-0.7,1.5-0.6,4,0
			c0.5,0.1,1.6,0,1.6,0l1-0.2c0.2-0.4,0.3-0.8,0.5-1.3c0.1-0.4,0.3-0.9,0.4-1.3l-0.6-0.7c0,0-0.8-0.8-1.2-1
			c-2.3-1.1-3.3-1.8-3.1-2.5c0.1-0.2,0.1-0.5,0.2-0.7c0-0.2,0.1-0.5,0.1-0.7c0.2-0.8,1.3-1,3.8-1.1c0.5,0,1.5-0.5,1.5-0.5l0.9-0.4
			c0-0.4,0.1-0.9,0.1-1.4c0-0.4,0.1-0.9,0.1-1.4l-0.8-0.5c0,0-1-0.6-1.5-0.7c-2.6-0.5-3.6-0.8-3.7-1.6c0-0.2,0-0.5,0-0.7
			c0-0.2,0-0.5-0.1-0.7c-0.1-0.8,0.9-1.3,3.4-2.1c0.5-0.2,1.4-0.9,1.4-0.9l0.7-0.6c-0.1-0.4-0.2-0.9-0.2-1.3
			c-0.1-0.4-0.2-0.9-0.3-1.3l-0.9-0.3c0,0-1.1-0.3-1.6-0.2c-2.6,0.3-3.7,0.2-4-0.6c-0.1-0.2-0.2-0.4-0.2-0.7
			c-0.1-0.2-0.2-0.4-0.2-0.7c-0.3-0.8,0.6-1.5,2.7-2.9c0.4-0.3,1.1-1.2,1.1-1.2l0.5-0.8c-0.2-0.4-0.4-0.8-0.6-1.2s-0.4-0.8-0.6-1.2
			h-1c0,0-1.1,0-1.6,0.2c-2.4,0.9-3.5,1.2-4,0.5c-0.1-0.2-0.3-0.4-0.4-0.6c-0.1-0.2-0.3-0.4-0.4-0.6c-0.5-0.6,0.1-1.6,1.8-3.6
			c0.3-0.4,0.7-1.4,0.7-1.4l0.3-0.9c-0.3-0.3-0.6-0.7-0.9-1c-0.3-0.3-0.6-0.7-0.9-1l-0.9,0.2c0,0-1.1,0.3-1.5,0.6
			c-2.1,1.6-3.1,2.1-3.7,1.6c-0.2-0.1-0.4-0.3-0.5-0.4c-0.2-0.1-0.4-0.3-0.5-0.4c-0.6-0.5-0.3-1.6,0.8-3.9c0.2-0.4,0.3-1.6,0.3-1.6
			v-1c-0.4-0.2-0.8-0.5-1.1-0.7c-0.4-0.2-0.8-0.5-1.2-0.7l-0.9,0.5c0,0-1,0.6-1.3,1c-1.6,2.1-2.4,2.8-3.1,2.5
			c-0.2-0.1-0.4-0.2-0.6-0.3c-0.2-0.1-0.4-0.2-0.6-0.3c-0.7-0.3-0.7-1.4-0.3-4c0.1-0.5-0.1-1.6-0.1-1.6l-0.2-0.9
			c-0.4-0.1-0.9-0.3-1.3-0.4c-0.4-0.1-0.9-0.2-1.3-0.3l-0.7,0.7c0,0-0.8,0.8-0.9,1.3c-1,2.4-1.5,3.4-2.3,3.3c-0.2,0-0.5-0.1-0.7-0.1
			C-385.7,1410.2-386,1410.2-386.2,1410.1z"/>
	</g>
</g>
</svg>
